:SAMPLES-PER-SECOND 30
:FULLY-SPECIFIED
:DEGREES
258
root  44.5641 36.7518 -2.09109 51.0627 -86.9288 -30.5983
RightUpLeg  -53.615 -10.9743 4.69982
RightLeg  34.0219 -0.822449 -0.854348
RightFoot  -1.87494 0.0272303 -0.477306
RightToes  2.32829e-010 0 -3.6325e-017
Spine  53.7633 -3.63475 6.58095
Spine1  -9.54832 -1.00134 0.0601962
HEad  -61.7083 1.47136 -5.66297
LeftShoulder1  11.3497 -20.6757 -40.5922
LeftArm  -3.34158 -28.1179 -10.1386
LeftForeArm  -10.5017 -50.3033 -14.3089
LeftHand  -0.244104 0.0205437 5.32207
RightShoulder  6.95878 13.1465 35.8036
RightArm  -10.8053 15.7203 17.9986
RightForeArm  -26.9101 53.1779 16.9574
RightHand  -0.170272 0.410329 -3.46906
LeftUpLeg  -57.6596 24.9617 -11.1415
LeftLeg  36.8332 -6.40548 -4.76406
LeftFoot  -4.29596 0.0168835 0.144585
LeftToes  1.42787e-010 7.94111e-011 2.6399e-011
259
root  44.1633 37.0115 -2.19986 48.773 -87.2027 -29.2096
RightUpLeg  -51.5274 -11.171 4.61481
RightLeg  33.1007 -0.729571 -0.765077
RightFoot  -1.20306 0.150544 -1.78871
RightToes  2.32829e-010 0 -3.6325e-017
Spine  52.6344 -3.46668 6.37022
Spine1  -9.28129 -0.99794 -0.181475
HEad  -61.5561 1.21916 -5.87273
LeftShoulder1  11.4503 -20.7753 -40.8005
LeftArm  -3.2408 -28.7407 -9.20494
LeftForeArm  -11.21 -50.6659 -14.5519
LeftHand  -0.244104 0.0205437 5.32207
RightShoulder  7.05668 13.2357 36.1576
RightArm  -10.2452 16.4103 16.9699
RightForeArm  -29.0372 52.8612 16.8786
RightHand  -0.185539 0.0385915 -4.01088
LeftUpLeg  -55.0006 24.6386 -10.0022
LeftLeg  35.412 -5.82871 -4.07913
LeftFoot  -3.23702 -0.0902306 1.55419
LeftToes  1.42787e-010 7.94111e-011 2.6399e-011
260
root  43.7493 37.394 -2.28782 45.3573 -87.4132 -27.4185
RightUpLeg  -48.1837 -11.937 4.55119
RightLeg  31.3455 -0.226367 -0.398619
RightFoot  -0.530027 0.257362 -2.75846
RightToes  2.32829e-010 0 -3.6325e-017
Spine  51.6185 -3.40197 6.24209
Spine1  -8.88056 -0.989857 -0.446891
HEad  -60.8203 1.19374 -6.12754
LeftShoulder1  11.3371 -20.6207 -40.6438
LeftArm  -3.75446 -29.9223 -8.07105
LeftForeArm  -11.9144 -51.8453 -15.2343
LeftHand  -0.244104 0.0205437 5.32207
RightShoulder  7.01461 13.227 35.9334
RightArm  -10.1098 17.514 15.9766
RightForeArm  -32.205 53.4782 17.4179
RightHand  -0.22017 -0.413341 -5.1104
LeftUpLeg  -51.061 24.4372 -8.53148
LeftLeg  33.2896 -5.3088 -3.39171
LeftFoot  -2.18446 -0.169457 2.28453
LeftToes  1.42787e-010 7.94111e-011 2.6399e-011
261
root  43.3496 37.9009 -2.36117 41.5862 -87.3446 -26.1007
RightUpLeg  -43.3726 -13.6673 4.70932
RightLeg  28.445 1.03371 0.365225
RightFoot  0.361612 0.343059 -3.31996
RightToes  2.32829e-010 0 -3.6325e-017
Spine  50.6713 -3.40963 6.27716
Spine1  -8.1898 -0.990649 -0.423956
HEad  -58.8233 1.34041 -6.46568
LeftShoulder1  10.9421 -20.348 -39.5886
LeftArm  -4.97329 -32.5575 -7.11224
LeftForeArm  -12.8018 -51.7983 -15.2759
LeftHand  -0.244104 0.0205437 5.32207
RightShoulder  6.73506 13.0158 34.7974
RightArm  -10.2973 19.9784 15.1045
RightForeArm  -35.1588 53.689 17.6864
RightHand  -0.287041 -0.0250882 -6.23081
LeftUpLeg  -45.6811 24.0788 -6.45427
LeftLeg  30.3111 -4.84143 -2.70905
LeftFoot  -0.883627 -0.211883 2.37655
LeftToes  1.42787e-010 7.94111e-011 2.6399e-011
262
root  42.98 38.4605 -2.43791 33.4288 -87.2767 -20.0641
RightUpLeg  -38.6225 -16.0182 4.83452
RightLeg  24.7385 2.75947 1.1291
RightFoot  1.83406 0.462377 -3.88611
RightToes  2.32829e-010 0 -3.6325e-017
Spine  49.091 -3.13324 5.94306
Spine1  -7.64933 -1.0017 0.18619
HEad  -55.3193 1.4083 -6.90179
LeftShoulder1  10.4931 -20.2447 -37.974
LeftArm  -7.01516 -36.5589 -5.52911
LeftForeArm  -15.1546 -50.119 -14.5195
LeftHand  -0.244104 0.0205437 5.32207
RightShoulder  6.21258 12.5881 32.6501
RightArm  -10.4647 23.821 14.0787
RightForeArm  -38.6775 53.5566 17.743
RightHand  -0.372128 0.439594 -7.51253
LeftUpLeg  -40.3006 23.6488 -4.886
LeftLeg  26.363 -4.66032 -2.17031
LeftFoot  0.990124 -0.225637 2.03799
LeftToes  1.42787e-010 7.94111e-011 2.6399e-011
263
root  42.6725 38.9973 -2.51583 15.1432 -87.4111 -2.45331
RightUpLeg  -35.5374 -18.0405 4.43504
RightLeg  20.8629 4.19168 1.71828
RightFoot  3.96979 0.61944 -4.4024
RightToes  2.32829e-010 0 -3.6325e-017
Spine  46.7695 -2.52604 4.8378
Spine1  -8.04132 -1.0997 1.08852
HEad  -51.3131 1.41004 -7.20622
LeftShoulder1  10.0078 -20.383 -35.7534
LeftArm  -10.28 -40.563 -1.82912
LeftForeArm  -18.684 -49.1938 -14.2597
LeftHand  -0.244104 0.0205437 5.32207
RightShoulder  5.51752 12.0965 29.3818
RightArm  -11.5975 28.435 12.7871
RightForeArm  -43.7636 53.7668 18.0477
RightHand  -0.364597 -0.261841 -8.39327
LeftUpLeg  -36.4518 23.844 -5.13955
LeftLeg  21.4734 -5.25493 -1.83768
LeftFoot  3.66298 -0.213944 1.46216
LeftToes  1.42787e-010 7.94111e-011 2.6399e-011
264
root  42.47 39.4609 -2.57155 -9.27887 -87.4055 22.3967
RightUpLeg  -33.6306 -17.8709 2.49119
RightLeg  17.1588 3.37496 2.61043
RightFoot  6.52901 0.74202 -4.43715
RightToes  2.32829e-010 0 -3.6325e-017
Spine  44.6766 -2.16246 3.78066
Spine1  -9.51733 -1.26156 1.09317
HEad  -48.2993 1.5444 -7.0803
LeftShoulder1  9.05591 -20.5982 -31.4554
LeftArm  -16.9069 -43.8209 3.60237
LeftForeArm  -21.4892 -48.9732 -14.2935
LeftHand  -0.244104 0.0205437 5.32207
RightShoulder  4.72682 11.7071 24.9478
RightArm  -16.5106 33.5903 11.2275
RightForeArm  -46.7558 52.8135 17.5438
RightHand  -0.180426 -2.16935 -5.42808
LeftUpLeg  -33.6247 23.3761 -5.62071
LeftLeg  16.0827 -4.74339 -1.99511
LeftFoot  6.88874 -0.18667 0.900647
LeftToes  1.42787e-010 7.94111e-011 2.6399e-011
